<svg width="20" height="21" viewBox="0 0 20 21" fill="none" xmlns="http://www.w3.org/2000/svg">
<path d="M13.1579 4.5C13.1579 5.06 13.3684 5.54 13.7684 5.93C14.1579 6.32 14.6526 6.5 15.2632 6.5C15.8421 6.5 16.3158 6.32 16.7474 5.93C17.1579 5.54 17.3684 5.06 17.3684 4.5C17.3684 3.97 17.1579 3.5 16.7263 3.09C16.3158 2.69 15.7895 2.5 15.2632 2.5C14.6842 2.5 14.2105 2.69 13.7895 3.09C13.3789 3.5 13.1579 3.97 13.1579 4.5ZM20 4.5C20 5.5 19.5895 6.69 18.8 8.06C18.0105 9.44 17.2211 10.56 16.4316 11.44L15.2632 12.75C14.8842 12.38 14.4421 11.89 13.9158 11.3C13.3895 10.7 12.6842 9.67 11.8211 8.2C10.9474 6.73 10.5263 5.5 10.5263 4.5C10.5263 3.25 10.9684 2.19 11.8947 1.31C12.8105 0.44 13.9263 0 15.2632 0C16.5579 0 17.6842 0.44 18.6 1.31C19.5263 2.19 20 3.25 20 4.5ZM18.9474 11.58V19C18.9474 19.5 18.7368 20 18.3053 20.39C17.8947 20.8 17.3684 21 16.8421 21H2.10526C1.57895 21 1.05263 20.8 0.642105 20.39C0.210526 20 0 19.5 0 19V5C0 4.5 0.210526 4 0.642105 3.61C1.05263 3.2 1.57895 3 2.10526 3H8.63158C8.50526 3.63 8.42105 4.13 8.42105 4.5C8.42105 5.69 8.88421 7.09 9.76842 8.7C10.6632 10.3 11.4105 11.5 12.0105 12.21C12.6316 12.95 13.1895 13.58 13.7158 14.11L15.2632 15.7L16.8421 14.11C18.1789 12.5 18.8842 11.64 18.9474 11.58ZM6.31579 14.5V15.89H8.68421C8.42105 17 7.63158 17.53 6.31579 17.53C5.58947 17.53 4.97895 17.28 4.49474 16.78C4.00761 16.3039 3.73888 15.6639 3.74737 15C3.74737 14.31 4 13.72 4.49474 13.22C4.97895 12.72 5.58947 12.47 6.31579 12.47C7.01053 12.47 7.56842 12.67 7.98947 13.08L9.12632 12.05C8.33684 11.36 7.42105 11 6.36842 11H6.31579C5.16842 11 4.17895 11.41 3.35789 12.19C2.53684 12.97 2.10526 13.91 2.10526 15C2.10526 16.09 2.53684 17.03 3.35789 17.81C4.17895 18.59 5.16842 19 6.31579 19C7.53684 19 8.51579 18.63 9.25263 17.91C10 17.19 10.3579 16.25 10.3579 15.09C10.3579 14.81 10.3474 14.61 10.3158 14.5H6.31579Z" fill="#303030"/>
</svg>
