<svg width="65" height="24" viewBox="0 0 65 24" fill="none" xmlns="http://www.w3.org/2000/svg">
<path fill-rule="evenodd" clip-rule="evenodd" d="M19.3847 0.712891C21.0724 0.759861 22.8074 0.759861 24.4951 0.712891C25.4573 5.12815 27.0976 8.87015 28.044 13.3167C29.5424 8.99541 31.4509 5.08117 32.9021 0.712891C34.6213 0.759861 36.4036 0.759861 38.1071 0.712891C37.8863 6.33373 37.7285 12.1111 37.7916 17.8885C36.656 17.8416 35.4573 17.8416 34.3216 17.8885C34.432 13.5359 34.6686 8.97975 34.6371 4.37661C32.9021 8.85449 31.1513 13.3324 29.4951 17.8885C28.3437 17.8416 27.145 17.8416 25.9778 17.8885C25.3153 15.6183 24.7317 13.3637 24.1008 11.1247C23.4699 8.90147 22.6655 6.74081 22.1449 4.47055C21.6402 8.7449 21.4667 13.348 21.2301 17.8885C20.126 17.8572 19.0377 17.8416 17.9336 17.8885C18.4856 12.4243 18.9746 6.56858 19.3532 0.806832C19.3532 0.775518 19.3532 0.712891 19.3847 0.712891Z" fill="white"/>
<path fill-rule="evenodd" clip-rule="evenodd" d="M52.4448 0.712891C56.6247 0.791175 60.8045 0.728548 65 0.712891C64.9843 1.66796 64.9054 2.57607 64.8581 3.49982C62.1136 3.31194 59.1168 3.35891 56.2777 3.42154C56.1199 4.81501 56.1515 6.36504 56.0253 7.78982C58.5174 7.86811 61.1515 7.82114 63.612 7.75851C63.5332 8.66661 63.4701 9.59037 63.4385 10.5454C60.9464 10.4985 58.2966 10.4672 55.8518 10.5768C55.836 12.1425 55.7098 13.6299 55.6783 15.1956C58.5489 15.2738 61.5931 15.2269 64.3691 15.086C64.3849 15.9471 64.2272 16.9491 64.2272 17.9042C60.0474 17.8416 55.7887 17.8729 51.6089 17.9042C52.0348 12.3773 52.3502 6.74081 52.3818 0.822489C52.366 0.759861 52.3975 0.728548 52.4448 0.712891Z" fill="white"/>
<path fill-rule="evenodd" clip-rule="evenodd" d="M42.303 21.7717C44.1799 21.7717 46.2777 21.803 47.9496 21.7091C47.8866 22.3823 47.855 23.0712 47.7761 23.7132C44.7635 23.6662 38.5806 23.7132 38.5806 23.7132L38.5963 21.8187C38.5963 21.8187 39.2273 21.1924 39.4796 20.9419C40.9938 19.4858 42.3661 18.1393 43.7383 16.511C44.2115 15.9473 45.0001 15.1645 45.1263 14.4286C45.2525 13.6771 44.8897 13.2074 44.4481 12.9569C43.0916 12.174 40.6784 12.8316 39.2746 13.0978C39.4008 12.3932 39.5269 11.7043 39.6373 10.9841C42.303 10.5144 46.3408 10.1856 47.8708 11.9392C48.9749 13.2074 48.2493 14.9923 47.4765 16.1352C46.0569 18.155 43.9591 20.0964 42.303 21.7717Z" fill="white"/>
<path fill-rule="evenodd" clip-rule="evenodd" d="M2.66557 14.0532C2.33434 13.9593 1.97156 13.8966 1.67188 13.7714C2.31856 11.188 3.20184 8.69853 4.25863 6.45959C5.29964 4.22065 6.52992 2.13828 8.46998 0.776123C9.55831 2.59233 9.60563 5.61412 9.32172 8.27579C9.05358 10.8279 8.48575 13.3173 7.90216 15.4467C6.79806 15.1492 5.69396 14.8517 4.57408 14.5699C4.77913 9.35612 6.51415 5.64543 8.29648 1.98171C8.29648 1.95039 8.32803 1.95039 8.32803 1.91908C5.48891 5.01915 3.70658 9.16824 2.66557 14.0532Z" fill="white"/>
<path fill-rule="evenodd" clip-rule="evenodd" d="M1.70347 12.1108L1.30915 13.6609L0 13.3477L1.70347 12.1108Z" fill="white"/>
<path fill-rule="evenodd" clip-rule="evenodd" d="M8.72245 13.9746L9.63727 15.8691L8.32812 15.556L8.72245 13.9746Z" fill="white"/>
<path fill-rule="evenodd" clip-rule="evenodd" d="M4.85813 19.5015C4.85813 19.5015 4.8739 17.8888 4.88968 17.1373C4.21144 18.5464 2.98116 21.4586 2.98116 21.4586C2.98116 21.4586 3.32816 18.3585 3.47012 16.8085C3.09157 17.3251 2.33447 18.7812 2.33447 18.7812C2.33447 18.7812 2.42911 17.8418 2.50797 17.3408C2.61838 16.6049 2.50797 15.5246 3.53321 15.6185C3.92753 15.6498 4.24299 15.8064 4.7004 15.9317C5.29977 16.0882 5.96223 16.1509 5.83605 16.9181C5.70987 17.7479 4.85813 19.5015 4.85813 19.5015Z" fill="white"/>
</svg>
