<svg width="204" height="36" viewBox="0 0 204 36" fill="none" xmlns="http://www.w3.org/2000/svg">
<path d="M90.0505 8.53052V28.1151H86.7971V14.093L80.755 23.9432H80.4064L74.3643 14.093V28.1151H71.1109V8.53052H74.5967L80.5226 18.3807L86.4485 8.53052H90.0505Z" fill="white"/>
<path d="M92.8392 28.1152V25.5657L99.6946 18.6127C101.321 16.9903 102.251 15.4838 102.251 14.3249C102.251 13.3978 102.019 12.5866 101.438 12.1231C100.857 11.5437 100.159 11.3119 99.2299 11.3119C97.6031 11.3119 96.325 12.1231 95.6278 13.7455L92.9554 12.1231C93.5363 10.8484 94.4659 9.80541 95.5116 9.1101C96.6736 8.41479 97.8355 8.06714 99.2299 8.06714C100.973 8.06714 102.483 8.64656 103.645 9.68953C104.923 10.7325 105.504 12.239 105.504 14.0931C105.504 16.0632 104.342 18.265 102.135 20.4668L97.7193 24.8704H105.853V27.9993H92.8392V28.1152Z" fill="white"/>
<path d="M112.011 24.9862H120.726V28.1151H108.874V8.53052H120.726V11.6594H112.127V16.7583H120.029V19.7713H112.127V24.9862H112.011Z" fill="white"/>
<path d="M126.884 27.7674C126.419 28.2309 125.955 28.3468 125.374 28.3468C124.793 28.3468 124.328 28.115 123.863 27.7674C123.398 27.3038 123.282 26.8403 123.282 26.2609C123.282 25.6814 123.514 25.2179 123.863 24.7544C124.328 24.2908 124.793 24.1749 125.374 24.1749C125.955 24.1749 126.419 24.4067 126.884 24.7544C127.349 25.2179 127.465 25.6814 127.465 26.2609C127.465 26.9562 127.233 27.4197 126.884 27.7674Z" fill="white"/>
<path d="M138.852 28.4628C135.947 28.4628 133.391 27.5357 131.532 25.5657C129.557 23.5957 128.627 21.1621 128.627 18.265C128.627 15.3678 129.557 12.9343 131.532 11.0801C133.507 9.11006 135.947 8.18298 138.852 8.18298C140.595 8.18298 142.222 8.64652 143.732 9.45772C145.243 10.2689 146.405 11.4278 147.218 12.9343L144.429 14.5566C143.848 13.6296 143.151 12.8184 142.106 12.239C141.06 11.6595 140.014 11.4278 138.736 11.4278C136.644 11.4278 134.901 12.1231 133.623 13.3978C132.345 14.6725 131.648 16.4108 131.648 18.4967C131.648 20.5827 132.345 22.205 133.623 23.5957C134.901 24.8704 136.644 25.5657 138.736 25.5657C140.014 25.5657 141.06 25.3339 142.106 24.7545C143.151 24.1751 143.848 23.3639 144.429 22.4368L147.218 24.0592C146.405 25.4498 145.243 26.6087 143.732 27.5357C142.222 27.9993 140.595 28.4628 138.852 28.4628Z" fill="white"/>
<path d="M149.891 28.1151V7.60352H152.912V28.1151H149.891Z" fill="white"/>
<path d="M163.021 28.4628C160.929 28.4628 159.186 27.7675 157.792 26.3769C156.397 24.9863 155.584 23.248 155.584 21.1621C155.584 19.0761 156.281 17.3379 157.792 15.9473C159.186 14.5566 160.929 13.8613 163.021 13.8613C165.112 13.8613 166.855 14.5566 168.249 15.9473C169.644 17.3379 170.457 19.0761 170.457 21.1621C170.457 23.248 169.76 24.9863 168.249 26.3769C166.855 27.7675 165.112 28.4628 163.021 28.4628ZM159.999 24.291C160.813 25.1021 161.859 25.5657 163.137 25.5657C164.415 25.5657 165.461 25.1021 166.274 24.291C167.087 23.4798 167.552 22.4368 167.552 21.1621C167.552 19.8873 167.087 18.8444 166.274 18.0332C165.461 17.222 164.415 16.7584 163.137 16.7584C161.859 16.7584 160.813 17.222 159.999 18.0332C159.186 18.8444 158.721 19.8873 158.721 21.1621C158.721 22.3209 159.07 23.3639 159.999 24.291Z" fill="white"/>
<path d="M182.657 14.0931H185.678V28.1152H182.657V26.3769C181.728 27.7675 180.333 28.5787 178.358 28.5787C176.731 28.5787 175.453 28.1152 174.408 27.0722C173.362 26.0293 172.897 24.6386 172.897 22.7845V14.209H175.918V22.5527C175.918 23.5957 176.15 24.4069 176.731 24.9863C177.312 25.5657 178.01 25.7975 179.055 25.7975C180.101 25.7975 181.031 25.4498 181.612 24.8704C182.309 24.1751 182.541 23.1321 182.541 21.8574V14.0931H182.657Z" fill="white"/>
<path d="M200.435 8.53052H203.456V28.115H200.435V26.145C199.273 27.7674 197.646 28.5786 195.555 28.5786C193.58 28.5786 191.953 27.8833 190.559 26.4927C189.164 25.102 188.467 23.3638 188.467 21.2778C188.467 19.1919 189.164 17.4536 190.559 16.063C191.953 14.6724 193.58 13.9771 195.555 13.9771C197.646 13.9771 199.273 14.7883 200.435 16.2948V8.53052ZM192.766 24.2908C193.58 25.102 194.625 25.5656 195.903 25.5656C197.182 25.5656 198.227 25.102 199.041 24.2908C199.854 23.4797 200.319 22.3208 200.319 21.0461C200.319 19.7713 199.854 18.7284 199.041 17.8013C198.227 16.9901 197.182 16.5266 195.903 16.5266C194.625 16.5266 193.58 16.9901 192.766 17.8013C191.953 18.6125 191.488 19.6555 191.488 21.0461C191.488 22.4367 191.953 23.4797 192.766 24.2908Z" fill="white"/>
<path d="M57.8647 2.96814C58.7943 2.96814 59.4914 3.66345 59.4914 4.59053C59.4914 5.5176 58.7943 6.21291 57.8647 6.21291C56.9352 6.21291 56.238 5.5176 56.238 4.59053C56.238 3.66345 56.9352 2.96814 57.8647 2.96814ZM57.8647 3.31579C58.5619 3.31579 59.1429 3.89522 59.2591 4.47464C59.0267 4.0111 58.5619 3.66345 57.9809 3.66345C57.2838 3.66345 56.5866 4.24287 56.5866 5.05407C56.5866 5.16995 56.5866 5.16995 56.5866 5.28584C56.4704 5.16995 56.4704 4.93818 56.4704 4.8223C56.5866 3.89522 57.1676 3.31579 57.8647 3.31579Z" fill="white"/>
<path d="M58.0971 9.11002L57.6323 11.4277L49.4987 13.9772L51.0093 10.5006C50.6607 10.2689 50.3121 10.0371 49.9635 9.80533C49.9635 9.34179 49.7311 8.99413 49.7311 8.53059H45.8967L51.5902 2.04105L53.9141 2.62047C57.1676 -0.27665 60.5372 -0.27665 64.4878 0.302774C63.4421 4.24286 62.0477 7.25586 58.0971 9.11002ZM63.0935 1.46162C58.3295 0.766313 54.9599 3.54755 54.4951 4.35874L52.055 3.77932L49.034 7.02409H51.4741C51.4741 7.02409 50.7769 7.7194 51.1255 8.99413C52.1712 9.80533 53.1008 9.45767 53.1008 9.45767L52.1712 11.6595L56.3542 10.3848L56.819 7.95117C57.7485 7.83529 61.6991 5.98113 63.0935 1.46162Z" fill="white"/>
<path d="M24.4008 29.7376C28.8162 28.1152 37.5307 23.8275 49.034 12.5867C41.4813 18.6127 31.14 24.7546 21.3797 27.7676C19.8692 28.2311 19.2882 28.4629 18.0101 28.9264C18.2425 28.9264 27.4218 38.7766 35.4392 30.2012C36.485 30.5488 37.6469 30.6647 38.6927 30.6647C44.9672 30.6647 50.0797 25.5658 50.0797 19.308C50.0797 17.6856 49.7311 16.0632 49.034 14.6726C48.3368 15.3679 47.6396 16.0632 46.9425 16.6426C47.1748 17.4538 47.4072 18.3809 47.4072 19.308C47.4072 24.0593 43.4566 27.9993 38.6927 27.9993C37.1821 27.9993 35.7878 27.6517 34.5097 26.9564C33.2315 29.1582 30.7915 30.6647 28.0028 30.6647C26.8409 30.7806 25.5627 30.4329 24.4008 29.7376Z" fill="white"/>
<path d="M47.291 11.08C47.291 11.08 39.6222 15.8312 27.538 20.119C18.1263 23.4796 9.87651 23.7114 0 24.7544C13.9433 32.171 38.4603 18.7283 47.291 11.08Z" fill="white"/>
<path d="M15.4538 11.3118C17.3129 5.98114 22.3093 2.27283 28.119 2.27283C32.5344 2.27283 36.7174 4.47464 39.1574 8.06707C40.7842 8.18295 42.2947 8.53061 43.5728 9.22591L39.6222 10.8483C39.2736 10.8483 38.9251 10.8483 38.5765 10.8483C38.2279 10.8483 37.8793 10.8483 37.5307 10.8483C35.7878 7.37176 32.0696 5.05406 28.0028 5.05406C22.7741 5.05406 18.4749 8.76238 17.4291 13.6295C14.8729 13.9772 12.6652 15.5996 11.6194 17.9173L12.8976 17.8014C28.119 17.6855 46.3615 9.45768 46.3615 9.45768C33.6963 16.7584 23.0065 20.5826 8.48218 20.9303C8.48218 16.4108 11.387 12.5866 15.4538 11.3118Z" fill="white"/>
<mask id="mask0" mask-type="alpha" maskUnits="userSpaceOnUse" x="12" y="32" width="31" height="4">
<path d="M42.0623 33.7936C42.0623 34.7206 35.5554 35.5318 27.4218 35.5318C19.4044 35.5318 12.7814 34.8365 12.7814 33.7936C12.7814 32.7506 19.2882 32.0553 27.4218 32.0553C35.5554 32.0553 42.0623 32.8665 42.0623 33.7936Z" fill="url(#paint0_radial)"/>
</mask>
<g mask="url(#mask0)">
</g>
<defs>
<radialGradient id="paint0_radial" cx="0" cy="0" r="1" gradientUnits="userSpaceOnUse" gradientTransform="translate(27.4511 33.8041) scale(14.6407 1.76628)">
<stop stop-color="#999999"/>
<stop offset="0.1268" stop-color="#8E8E8E"/>
<stop offset="0.3466" stop-color="#727272"/>
<stop offset="0.6328" stop-color="#444444"/>
<stop offset="0.9714" stop-color="#060606"/>
<stop offset="1"/>
</radialGradient>
</defs>
</svg>
