<svg width="134" height="28" viewBox="0 0 134 28" fill="none" xmlns="http://www.w3.org/2000/svg">
<g clip-path="url(#clip0)">
<path fill-rule="evenodd" clip-rule="evenodd" d="M24.1228 0C26.2229 0.0572207 28.382 0.0572207 30.4822 0C31.6795 5.37875 33.7208 9.93733 34.8985 15.3542C36.7632 10.0899 39.1381 5.32153 40.9439 0C43.0834 0.0572207 45.3013 0.0572207 47.4211 0C47.1463 6.84741 46.9501 13.8856 47.0286 20.9237C45.6154 20.8665 44.1236 20.8665 42.7104 20.9237C42.8478 15.6213 43.1422 10.0708 43.103 4.46321C40.9439 9.91826 38.7652 15.3733 36.7043 20.9237C35.2714 20.8665 33.7797 20.8665 32.3272 20.9237C31.5029 18.158 30.7766 15.4114 29.9915 12.6839C29.2064 9.97548 28.2054 7.34332 27.5576 4.57766C26.9296 9.78474 26.7136 15.3924 26.4192 20.9237C25.0453 20.8856 23.6909 20.8665 22.317 20.9237C23.004 14.267 23.6124 7.13351 24.0835 0.114441C24.0835 0.0762943 24.0835 0 24.1228 0Z" fill="white"/>
<path fill-rule="evenodd" clip-rule="evenodd" d="M65.2629 0C70.4643 0.0953678 75.6657 0.0190736 80.8868 0C80.8671 1.16349 80.769 2.26975 80.7101 3.3951C77.2949 3.16621 73.5655 3.22343 70.0325 3.29973C69.8362 4.99727 69.8755 6.88556 69.7185 8.62125C72.8197 8.71662 76.0976 8.6594 79.1595 8.58311C79.0614 9.68937 78.9829 10.8147 78.9436 11.9782C75.8424 11.921 72.5449 11.8828 69.5026 12.0163C69.4829 13.9237 69.3259 15.7357 69.2867 17.6431C72.8589 17.7384 76.6471 17.6812 80.1017 17.5095C80.1213 18.5586 79.925 19.7793 79.925 20.9428C74.7236 20.8665 69.4241 20.9046 64.2227 20.9428C64.7526 14.2098 65.1452 7.34332 65.1844 0.133515C65.1648 0.0572207 65.2041 0.0190736 65.2629 0Z" fill="white"/>
<path fill-rule="evenodd" clip-rule="evenodd" d="M52.6421 25.6539C54.9779 25.6539 57.5884 25.6921 59.669 25.5776C59.5904 26.3978 59.5512 27.237 59.453 28.019C55.7041 27.9618 48.0099 28.019 48.0099 28.019L48.0296 25.7111C48.0296 25.7111 48.8147 24.9482 49.1287 24.643C51.013 22.8692 52.7207 21.2289 54.4283 19.2452C55.0171 18.5586 55.9985 17.6049 56.1556 16.7084C56.3126 15.7929 55.8611 15.2207 55.3115 14.9155C53.6235 13.9618 50.6205 14.7629 48.8736 15.0872C49.0306 14.2289 49.1876 13.3896 49.325 12.5122C52.6421 11.94 57.6669 11.5395 59.5708 13.6757C60.9448 15.2207 60.0419 17.3951 59.0801 18.7874C57.3136 21.2479 54.7031 23.6131 52.6421 25.6539Z" fill="white"/>
<path fill-rule="evenodd" clip-rule="evenodd" d="M3.31713 16.2508C2.90494 16.1364 2.4535 16.0601 2.08057 15.9075C2.88531 12.7603 3.98448 9.72764 5.29955 7.00012C6.59499 4.2726 8.12597 1.73582 10.5402 0.076416C11.8945 2.28895 11.9534 5.97015 11.6001 9.21266C11.2664 12.3216 10.5598 15.3543 9.83361 17.9483C8.45965 17.586 7.08569 17.2236 5.69211 16.8802C5.94727 10.5287 8.10635 6.0083 10.3243 1.54508C10.3243 1.50693 10.3636 1.50693 10.3636 1.46879C6.83053 5.24535 4.61257 10.2998 3.31713 16.2508Z" fill="white"/>
<path fill-rule="evenodd" clip-rule="evenodd" d="M2.11982 13.8856L1.62912 15.7739L0 15.3924L2.11982 13.8856Z" fill="white"/>
<path fill-rule="evenodd" clip-rule="evenodd" d="M10.8543 16.1554L11.9927 18.4633L10.3636 18.0818L10.8543 16.1554Z" fill="white"/>
<path fill-rule="evenodd" clip-rule="evenodd" d="M6.04541 22.8885C6.04541 22.8885 6.06504 20.9239 6.08467 20.0084C5.24066 21.725 3.70968 25.2727 3.70968 25.2727C3.70968 25.2727 4.1415 21.4961 4.31815 19.6078C3.84708 20.2373 2.90494 22.0111 2.90494 22.0111C2.90494 22.0111 3.02271 20.8667 3.12085 20.2563C3.25824 19.3599 3.12085 18.0438 4.39666 18.1582C4.88736 18.1964 5.27992 18.3871 5.84913 18.5397C6.59499 18.7304 7.41937 18.8067 7.26234 19.7413C7.10532 20.7522 6.04541 22.8885 6.04541 22.8885Z" fill="white"/>
<path d="M103.263 1.7548C104.381 2.91829 104.852 4.57769 104.637 6.75208C104.421 8.92646 103.636 10.6049 102.281 11.7684C100.927 12.9319 99.1211 13.5232 96.9032 13.5232H93.8609L93.3309 21.1526H89.6212L90.5437 10.5668L91.0737 -0.019043H98.2575C100.456 0.0191042 102.144 0.591311 103.263 1.7548ZM97.2565 10.0709C98.336 10.0709 99.1604 9.7657 99.7885 9.15535C100.397 8.54499 100.75 7.76297 100.848 6.79022C100.966 5.81747 100.77 5.01638 100.26 4.38695C99.7492 3.75752 98.9641 3.45235 97.865 3.45235H94.4301L93.9982 10.09H97.2565V10.0709Z" fill="white"/>
<path d="M116.865 9.25072C116.413 9.13628 115.883 9.07906 115.255 9.07906C112.9 9.07906 111.938 10.7957 111.604 14.248L110.937 21.1717H107.267L108.032 13.2752L108.405 5.32156H112.076L111.781 8.4687C112.311 7.30522 112.959 6.42783 113.705 5.89377C114.451 5.34064 115.236 5.07361 116.06 5.07361C116.453 5.07361 116.865 5.1499 117.297 5.30249L116.865 9.25072Z" fill="white"/>
<path d="M127.209 4.92102C128.21 4.92102 129.132 5.09268 129.976 5.41693C130.82 5.76026 131.527 6.27524 132.096 6.96189C133.352 8.43056 134.236 10.5477 133.961 13.2943C133.706 15.9455 132.822 18.0246 131.291 19.5314C129.859 20.9237 128.112 21.6104 126.031 21.6104C123.931 21.6104 122.302 20.9237 121.144 19.5314C119.887 18.0627 119.004 15.9837 119.279 13.2943C119.515 10.5668 120.417 8.44963 121.948 6.96189C123.362 5.60767 125.109 4.92102 127.209 4.92102ZM130.251 13.2752C130.428 11.6349 129.859 10.3951 129.348 9.59405C128.838 8.77388 128.053 8.37334 127.032 8.37334C125.992 8.37334 125.109 8.77388 124.363 9.59405C123.617 10.4142 123.146 11.6349 122.969 13.2752C122.792 14.9156 123.362 16.1554 123.892 16.9564C124.422 17.7766 125.207 18.1772 126.227 18.1772C127.248 18.1772 128.131 17.7766 128.877 16.9564C129.623 16.1554 130.094 14.9346 130.251 13.2752Z" fill="white"/>
</g>
<defs>
<clipPath id="clip0">
<rect width="134" height="28" fill="white"/>
</clipPath>
</defs>
</svg>
