<svg width="12" height="14" viewBox="0 0 12 14" fill="none" xmlns="http://www.w3.org/2000/svg">
<path d="M9.57477 0.795533C8.79546 0.392873 7.9799 0.323539 7.12807 0.587531C6.27624 0.851524 5.63403 1.37264 5.20146 2.15088L1.21804 9.60926C0.900674 10.2002 0.835743 10.7982 1.02325 11.4032C1.21075 12.0082 1.60247 12.4647 2.19841 12.7726C2.79434 13.0805 3.39089 13.142 3.98805 12.9569C4.56765 12.7773 5.01613 12.392 5.33349 11.801L9.36157 4.30037C9.55002 3.97672 9.57996 3.60746 9.45138 3.19259C9.33888 2.82959 9.10269 2.53333 8.74281 2.30383C8.37608 2.11434 7.99951 2.07947 7.61312 2.19922C7.22672 2.31897 6.95343 2.55523 6.79326 2.90802L3.07645 9.82907C2.89335 10.17 2.97371 10.4293 3.31752 10.6069C3.64912 10.8073 3.91258 10.7257 4.10788 10.362L7.74566 3.46544C7.84866 3.30089 7.98039 3.26007 8.14083 3.34297C8.30664 3.44316 8.34682 3.5728 8.26137 3.73191L4.31233 11.2081C4.15365 11.5035 3.92502 11.6975 3.62644 11.7901C3.32786 11.8826 3.02959 11.8519 2.73162 11.6979C2.43365 11.544 2.23913 11.3201 2.14806 11.0262C2.05698 10.7323 2.09079 10.4377 2.24947 10.1422L6.20654 2.69197C6.48729 2.1692 6.8999 1.82345 7.44436 1.65471C7.98883 1.48597 8.51587 1.54052 9.02549 1.81835C9.52974 2.07889 9.86357 2.47278 10.027 3C10.1904 3.52723 10.1405 4.04951 9.87728 4.56684L6.43511 10.9765C6.26422 11.2947 6.34458 11.554 6.67618 11.7544C7.0322 11.9093 7.29565 11.8276 7.46654 11.5094L10.9087 5.09977C11.3184 4.30969 11.3946 3.49978 11.1375 2.67005C10.8803 1.84032 10.3594 1.21548 9.57477 0.795533Z" fill="#FDE724"/>
</svg>
