<svg width="18" height="18" viewBox="0 0 18 18" fill="none" xmlns="http://www.w3.org/2000/svg">
<circle cx="9" cy="9" r="8.3" stroke="#FDE724" stroke-width="1.4"/>
<path d="M9.69223 10.7926H8.37387L8.1871 5.25H9.87899L9.69223 10.7926ZM9.03305 11.6605C9.30038 11.6605 9.51461 11.7393 9.67575 11.8967C9.84054 12.0542 9.92294 12.2556 9.92294 12.501C9.92294 12.7427 9.84054 12.9423 9.67575 13.0997C9.51461 13.2572 9.30038 13.3359 9.03305 13.3359C8.76937 13.3359 8.55514 13.2572 8.39035 13.0997C8.22921 12.9423 8.14865 12.7427 8.14865 12.501C8.14865 12.2593 8.22921 12.0597 8.39035 11.9022C8.55514 11.7411 8.76937 11.6605 9.03305 11.6605Z" fill="#FDE724"/>
</svg>
