<svg width="80" height="80" viewBox="0 0 80 80" fill="none" xmlns="http://www.w3.org/2000/svg">
<path d="M40 -0.000244141C17.92 -0.000244141 0 17.9198 0 39.9998C0 62.0798 17.92 79.9998 40 79.9998C62.08 79.9998 80 62.0798 80 39.9998C80 17.9198 62.08 -0.000244141 40 -0.000244141ZM40 71.9998C22.36 71.9998 8 57.6398 8 39.9998C8 22.3598 22.36 7.99976 40 7.99976C57.64 7.99976 72 22.3598 72 39.9998C72 57.6398 57.64 71.9998 40 71.9998ZM32 57.9998L56 39.9998L32 21.9998V57.9998Z" fill="white" fill-opacity="0.3"/>
</svg>
