<svg width="300" height="134" viewBox="0 0 300 134" fill="none" xmlns="http://www.w3.org/2000/svg">
<rect x="268.479" y="133.011" width="236.629" height="101.011" rx="7" transform="rotate(-180 268.479 133.011)" fill="#0D0D0D"/>
<g filter="url(#filter0_d)">
<rect x="35.5921" y="35.7411" width="229.146" height="8.41762" rx="4" fill="#007DC6"/>
</g>
<path d="M51.4921 75.6809C51.4921 75.6809 56.4068 95.8203 57.1912 99.0892C58.1067 102.905 59.7563 104.309 64.5124 103.362L67.5813 90.8756C68.3591 87.7741 68.8808 85.5629 69.3808 82.4079H69.4688C69.8201 85.5939 70.3203 87.7834 70.9604 90.8865C70.9604 90.8865 72.2097 96.5549 72.8494 99.5322C73.4909 102.508 75.276 104.384 79.9346 103.363L87.247 75.683H81.3431L78.8467 87.6504C78.1755 91.1339 77.5664 93.8558 77.0969 97.0426H77.0136C76.5868 93.8876 76.044 91.2735 75.3616 87.8795L72.7622 75.683H66.6109L63.8304 87.5722C63.0427 91.185 62.306 94.1024 61.8374 97.1811H61.7526C61.2728 94.2817 60.6337 90.6152 59.9417 87.1179C59.9417 87.1179 58.2898 78.6142 57.7102 75.683L51.4926 75.6838L51.4921 75.6809ZM107.774 75.6809V103.361H113.395V97.4831V75.6796H107.774V75.6809ZM186.941 75.6809V96.1008C186.941 98.9163 187.47 100.889 188.604 102.094C189.594 103.148 191.226 103.83 193.18 103.83C194.842 103.83 196.477 103.515 197.248 103.228L197.175 98.8353C196.602 98.9764 195.942 99.0893 195.04 99.0893C193.125 99.0893 192.483 97.863 192.483 95.3351V87.5225H197.379V82.2265H192.483V75.681H186.94L186.941 75.6809ZM95.212 82.0977C91.7187 82.0977 88.9456 83.0785 87.4341 83.952L88.5403 87.7399C89.9236 86.8678 92.1263 86.1458 94.2119 86.1458C97.6649 86.137 98.2294 88.0983 98.2294 89.3562V89.6537C90.7054 89.6424 85.9527 92.246 85.9527 97.5532C85.9527 100.793 88.3721 103.83 92.579 103.83C95.1687 103.83 97.3346 102.797 98.6326 101.142H98.7599C98.7599 101.142 99.6195 104.736 104.355 103.362C104.106 101.866 104.025 100.271 104.025 98.3505V90.9559C104.025 86.243 102.013 82.0978 95.212 82.0978L95.212 82.0977ZM128.836 82.0977C125.319 82.0977 123.738 83.8803 122.78 85.3926H122.697V82.5671H117.332V103.362H122.983V91.1667C122.983 90.595 123.048 89.9904 123.248 89.4645C123.716 88.2366 124.859 86.8004 126.683 86.8004C128.963 86.8004 130.03 88.7281 130.03 91.5101V103.362H135.674V91.019C135.674 90.4732 135.749 89.8158 135.91 89.3333C136.374 87.9366 137.606 86.8001 139.301 86.8001C141.613 86.8001 142.722 88.6943 142.722 91.9679V103.362H148.371V91.1144C148.371 84.6552 145.091 82.0978 141.389 82.0978C139.749 82.0978 138.455 82.5089 137.285 83.2273C136.301 83.8308 135.421 84.6883 134.651 85.8173H134.568C133.673 83.5763 131.572 82.0978 128.835 82.0978L128.836 82.0977ZM159.867 82.0977C156.375 82.0977 153.602 83.0785 152.089 83.952L153.197 87.7399C154.579 86.8678 156.783 86.1458 158.868 86.1458C162.318 86.137 162.884 88.0983 162.884 89.3562V89.6537C155.361 89.6424 150.608 92.246 150.608 97.5532C150.608 100.793 153.029 103.83 157.238 103.83C159.825 103.83 161.992 102.797 163.288 101.142H163.415C163.415 101.142 164.275 104.736 169.011 103.362C168.762 101.866 168.682 100.271 168.682 98.3505V90.9559C168.682 86.243 166.669 82.0978 159.867 82.0978L159.867 82.0977ZM183.334 82.0977C181.17 82.0977 178.708 83.4945 177.675 86.4888H177.517V82.5669H172.43V103.362H178.229V92.7135C178.229 92.1391 178.264 91.6382 178.355 91.1789C178.784 88.9484 180.49 87.5224 182.939 87.5224C183.611 87.5224 184.092 87.5952 184.612 87.6704V82.2263C184.176 82.1382 183.877 82.0975 183.334 82.0975L183.334 82.0977ZM98.411 93.3387V95.9329C98.411 96.3166 98.3776 96.7126 98.2713 97.0587C97.8362 98.4995 96.3437 99.7171 94.4778 99.7171C92.9223 99.7171 91.6865 98.8342 91.6865 96.9666C91.6865 94.1098 94.8312 93.3201 98.4111 93.3387H98.411ZM163.066 93.3387V95.9329C163.066 96.3166 163.032 96.7126 162.927 97.0587C162.492 98.4995 161 99.7171 159.134 99.7171C157.578 99.7171 156.342 98.8342 156.342 96.9666C156.342 94.1098 159.487 93.3201 163.066 93.3387H163.066Z" fill="#007DC6"/>
<path d="M227.77 65.6705C225.956 65.6705 224.513 66.6838 224.513 67.9175L225.615 80.3964C225.737 81.1482 226.658 81.7281 227.771 81.7281C228.887 81.7267 229.805 81.1472 229.929 80.3964L231.036 67.9175C231.036 66.6839 229.59 65.6706 227.773 65.6706L227.77 65.6705ZM209.811 75.6804C208.869 75.7028 207.799 76.416 207.118 77.5963C206.208 79.168 206.369 80.9243 207.434 81.5405L218.791 86.8293C219.5 87.0932 220.464 86.5894 221.022 85.6274C221.022 85.6273 221.022 85.627 221.022 85.6269C221.583 84.6602 221.539 83.5733 220.949 83.0911L210.692 75.8969C210.426 75.7426 210.126 75.6731 209.812 75.6806L209.811 75.6804ZM245.73 75.6804C245.416 75.673 245.116 75.7424 244.851 75.8967L234.592 83.091C234.005 83.5731 233.962 84.6601 234.52 85.6267L234.52 85.6273C235.08 86.5892 236.041 87.093 236.75 86.8292L248.112 81.5406C249.182 80.9244 249.335 79.1682 248.431 77.5964C247.747 76.4161 246.675 75.7029 245.733 75.6805L245.73 75.6804ZM219.215 92.1445C219.068 92.1425 218.926 92.1652 218.793 92.2154L207.436 97.4979C206.371 98.1168 206.209 99.8738 207.12 101.447C208.027 103.016 209.627 103.761 210.693 103.146L220.951 95.9575C221.541 95.4695 221.584 94.3828 221.024 93.4171L221.028 93.4192C220.575 92.6326 219.852 92.153 219.215 92.1444L219.215 92.1445ZM236.331 92.1445C235.695 92.1532 234.973 92.6328 234.519 93.4194L234.523 93.4173C233.965 94.383 234.008 95.4696 234.595 95.9577L244.853 103.146C245.917 103.762 247.518 103.016 248.43 101.447C249.334 99.8739 249.181 98.1169 248.111 97.4981L236.753 92.2156C236.619 92.1654 236.477 92.1427 236.331 92.1447L236.331 92.1445ZM227.769 97.3163C226.657 97.3176 225.738 97.8951 225.617 98.6449L224.515 111.123C224.515 112.359 225.957 113.37 227.772 113.37C229.59 113.37 231.035 112.359 231.035 111.123L229.93 98.6449C229.806 97.8951 228.888 97.3177 227.773 97.3163H227.769H227.769Z" fill="#FFC220"/>
<defs>
<filter id="filter0_d" x="0.592102" y="0.74115" width="299.146" height="78.4176" filterUnits="userSpaceOnUse" color-interpolation-filters="sRGB">
<feFlood flood-opacity="0" result="BackgroundImageFix"/>
<feColorMatrix in="SourceAlpha" type="matrix" values="0 0 0 0 0 0 0 0 0 0 0 0 0 0 0 0 0 0 127 0"/>
<feOffset/>
<feGaussianBlur stdDeviation="17.5"/>
<feColorMatrix type="matrix" values="0 0 0 0 0 0 0 0 0 0.490196 0 0 0 0 0.776471 0 0 0 0.35 0"/>
<feBlend mode="normal" in2="BackgroundImageFix" result="effect1_dropShadow"/>
<feBlend mode="normal" in="SourceGraphic" in2="effect1_dropShadow" result="shape"/>
</filter>
</defs>
</svg>
